<?xml version="1.0" encoding="utf-8"?>
<!-- Generator: Adobe Illustrator 24.0.1, SVG Export Plug-In . SVG Version: 6.00 Build 0)  -->
<svg version="1.1" id="Layer_1" xmlns="http://www.w3.org/2000/svg" xmlns:xlink="http://www.w3.org/1999/xlink" x="0px" y="0px"
	 width="500px" height="500px" viewBox="0 0 500 500" style="enable-background:new 0 0 500 500;" xml:space="preserve">
<style type="text/css">
	.st0{fill:#111110;}
	.st1{fill:#949EAA;}
	.st2{fill:#111010;}
	.st3{fill:#E6E9EF;}
	.st4{fill:#282624;}
</style>
<g>
	<path class="st0" d="M238.6,316.7c-2.3-6.7-8.2-18.6-12.4-24.9c-12.4-18.8-30.5-34-50.6-42.6c-16.3-7-31.4-9.8-49.4-9.3
		c-28.5,0.8-54.7,11.8-75.5,31.7C40.6,281.2,33.4,291.1,27,304c-14.3,28.8-15.9,62.7-4.1,92.7c2.2,5.7,4.9,11.2,8.1,16.5
		c0.1,0.2,0.3,0.5,0.4,0.7c0.2,0.3,0.4,0.6,0.6,1c3.1,5,6.5,9.7,10.2,14.1c9.9,11.7,22,21.4,35.7,28.3c14.2,7.3,27.7,11,45.2,12.5
		c4.1,0.3,17.3-0.2,22.8-1c28.5-3.9,54.1-18.6,72.1-39.9c2.8-3.3,5.5-6.9,7.9-10.5c0.4-0.6,0.8-1.2,1.2-1.8l0,0
		c0.3-0.4,0.6-0.9,0.8-1.3c0.4-0.7,0.8-1.4,1.2-2c0.2-0.4,0.4-0.7,0.7-1.1c5.3-9.2,9.4-19.2,12-29.8
		C247,360.7,245.9,338.2,238.6,316.7z M230.5,379.6c-1.9,7.9-4.8,15.4-8.4,22.5c0,0.1-0.1,0.2-0.1,0.2c-0.4,0.7-0.7,1.4-1.1,2.1
		c-0.6,1.1-1.3,2.3-1.9,3.4c-0.8,1.3-1.6,2.6-2.4,3.9c-0.3-0.2-0.5-0.5-0.8-0.7c-7.6-7.3-13.5-10.9-17.9-10.3
		c-4.7,0.6-9.4-2.3-15.6-9.7c-4.7-5.9-8.8-12.6-9.1-14.7c-0.6-2.3-1.8-6.2-3.2-8.5c-0.9-1.4,0.3-0.8,2.8,1.1c-4.8-4.2-8.4-7-9.2-7
		c-0.9,0-1.2,4.1,0,9.4c0.7,3.7,1,6.8,0.9,7.7c2,0.7,4.6,4.8,6.2,9.9c1.8,5.3,2.6,9.7,2.1,9.7c-0.6,0-3.5-4.4-6.8-9.7
		c-3.8-6.8-4.4-10-2.1-10c0,0,0,0,0,0c-1.4-1.8-7.7-10.2-14.7-19.7c-13.2-17.9-14.1-18.5-24.1-17c-15,2.6-30,15.3-37.9,32.6l-6,13.3
		c0.6,1.4,0.3,3.9-1.1,6.4c-4.1,7.6-5.3,7-3.5-1.8c0.6-4.1,2.3-6.5,3.8-5.6v-8.2c-0.3-12.6-2.9-13.8-10.3-5.6
		c-2.9,3.2-8.2,6.2-11.5,6.8c-2.8,0.4-6,2.8-8.4,6c0.4-0.3,1.1-0.3,2-0.1c2.1,0.6,3.5-0.6,3.2-2.3c-0.3-1.8,2.3-2.6,6.2-2.1
		c3.8,0.9,7.9-0.3,9.1-2.3c1.8-2.3,1.2-2.9-1.5-1.2c-2.6,1.5-3.2,1.2-1.8-1.2c2.9-4.7,7.6-1.2,7.6,5.6c0,10.3-2.9,13.8-10.3,12.6
		c-5-1.2-7.3,0.3-8.8,4.7c-1.3,4.3-10.5,10.1-14.1,9.6c-0.8-1.3-1.5-2.5-2.3-3.8c-0.3-0.5-0.6-1-0.8-1.5c-2-3.7-3.8-7.6-5.4-11.5
		c-10.6-26.9-9.2-57.5,3.7-83.4c5.8-11.6,12.3-20.5,21.3-29.1c18.8-17.9,42.3-27.7,68-28.5c16.2-0.5,29.8,2,44.5,8.3
		c18.1,7.8,34.3,21.4,45.5,38.3c3.7,5.6,9,16.3,11.1,22.4C234.3,339.9,235.3,360.1,230.5,379.6z M116.8,389.8c0-1.2,2.9-5.3,6.8-9.1
		c6.2-6.2,6.2-7.3,3.2-22l-3.5-15.3l6.2,4.1c3.5,2.3,11.2,10.3,16.7,17.6c10,13.2,27.9,43.2,25.6,43.2c-0.6,0-4.7-3.8-9.4-8.8
		c-9.4-10-17.3-13.2-22.6-9.7C134.7,392.8,116.8,392.8,116.8,389.8z"/>
	<path class="st1" d="M230.5,379.6c-1.9,7.9-4.8,15.4-8.4,22.5c-7.2-9.6-14.1-18.7-14.9-19.7c-0.6-0.6-3.8,0.3-7,2.3
		c-5.2,3.5-7.6,2.4-19.8-9c0,0,0,0,0,0c-0.2-0.1-0.3-0.3-0.5-0.4c-2.5-2.3-5-4.5-7.2-6.5c0,0,0,0,0,0c-4.8-4.2-8.4-7-9.2-7
		c-0.9,0-1.2,4.1,0,9.4c0.7,3.7,1,6.8,0.9,7.7c0,0.3-0.1,0.4-0.3,0.2c0,0-0.1-0.2-0.3-0.3c-1.4-1.8-7.7-10.2-14.7-19.7
		c-13.2-17.9-14.1-18.5-24.1-17c-15,2.6-30,15.3-37.9,32.6l-6,13.3l-0.8,1.7v-10.9c-0.3-12.6-2.9-13.8-10.3-5.6
		c-2.9,3.2-8.2,6.2-11.5,6.8c-2.8,0.4-6,2.8-8.4,6h0c-0.2,0.3-0.4,0.6-0.6,0.9c-0.6,0.9-1.1,1.8-1.6,2.8c-1.5,3.7-5.3,9.3-9.2,14.2
		c-2-3.7-3.8-7.6-5.4-11.5c-10.6-26.9-9.2-57.5,3.7-83.4c5.8-11.6,12.3-20.5,21.3-29.1c18.8-17.9,42.3-27.7,68-28.5
		c16.2-0.5,29.8,2,44.5,8.3c18.1,7.8,34.3,21.4,45.5,38.3c3.7,5.6,9,16.3,11.1,22.4C234.3,339.9,235.3,360.1,230.5,379.6z"/>
	<g id="layer101">
		<path class="st2" d="M75.2,382.4c0,10.3-2.9,13.8-10.3,12.6c-5-1.2-7.3,0.3-8.8,4.7c-1.3,4.3-10.5,10.1-14.1,9.6
			c-0.8-1.3-1.5-2.5-2.3-3.8c-0.3-0.5-0.6-1-0.8-1.5c3.9-4.9,7.6-10.5,9.2-14.2c0.5-1,1-1.9,1.6-2.8c0.2-0.3,0.4-0.6,0.6-0.9h0
			c0.4-0.3,1.1-0.3,2-0.1c2.1,0.6,3.5-0.6,3.2-2.3c-0.3-1.8,2.3-2.6,6.2-2.1c3.8,0.9,7.9-0.3,9.1-2.3c1.8-2.3,1.2-2.9-1.5-1.2
			c-2.6,1.5-3.2,1.2-1.8-1.2C70.5,372.1,75.2,375.7,75.2,382.4z"/>
		<path class="st2" d="M80.1,394.4c-4.1,7.6-5.3,7-3.5-1.8c0.6-4.1,2.3-6.5,3.8-5.6v2.6l0.8-1.7C81.7,389.5,81.4,392,80.1,394.4z"/>
		<path class="st2" d="M146.1,365.2c10,13.2,27.9,43.2,25.6,43.2c-0.6,0-4.7-3.8-9.4-8.8c-9.4-10-17.3-13.2-22.6-9.7
			c-5,2.9-22.9,2.9-22.9,0c0-1.2,2.9-5.3,6.8-9.1c6.2-6.2,6.2-7.3,3.2-22l-3.5-15.3l6.2,4.1C132.9,349.9,140.6,357.8,146.1,365.2z"
			/>
		<path class="st2" d="M172.6,398.6c-0.6,0-3.5-4.4-6.8-9.7c-3.8-6.8-4.4-10-2.1-10c0,0,0,0,0,0c0.1,0.2,0.2,0.3,0.3,0.3
			c0.2,0.2,0.2,0.1,0.3-0.2c2,0.7,4.6,4.8,6.2,9.9C172.3,394.1,173.2,398.6,172.6,398.6z"/>
		<path class="st2" d="M222.1,402.1c0,0.1-0.1,0.2-0.1,0.2c-0.4,0.7-0.7,1.4-1.1,2.1c-0.6,1.1-1.3,2.3-1.9,3.4
			c-0.8,1.3-1.6,2.6-2.4,3.9c-0.3-0.2-0.5-0.5-0.8-0.7c-7.6-7.3-13.5-10.9-17.9-10.3c-4.7,0.6-9.4-2.3-15.6-9.7
			c-4.7-5.9-8.8-12.6-9.1-14.7c-0.6-2.3-1.8-6.2-3.2-8.5c-0.9-1.4,0.3-0.8,2.8,1.1c0,0,0,0,0,0c2.2,1.9,4.7,4.1,7.2,6.5
			c0.2,0.1,0.3,0.3,0.5,0.4c0,0,0,0,0,0c12.2,11.3,14.6,12.4,19.8,9c3.2-2.1,6.5-2.9,7-2.3C208,383.3,214.9,392.5,222.1,402.1z"/>
	</g>
	<g id="layer102">
		<path class="st3" d="M218.1,401.5c-1-2.5-5-1.7-7-4.7c-2.6-3.8-6.2-5.6-8.8-4.7c-5.6,2.1-14.1-0.6-12-3.5
			c0.6-1.1-3.6-6.7-9.8-12.8c0,0,0,0,0,0c-0.3-0.3-0.7-0.7-1-1c-2.6-2.5-4.9-4.5-6.6-5.9c0,0,0,0,0,0c-2.5-2-3.6-2.5-2.8-1.1
			c1.5,2.4,2.6,6.2,3.2,8.5c0.3,2.1,4.4,8.8,9.1,14.7c6.2,7.3,10.9,10.3,15.6,9.7c4.4-0.6,10.3,2.9,17.9,10.3
			c0.3,0.2,0.5,0.5,0.8,0.7c0.9-1.8,1.9-4.3,1.9-7.3C218.5,403.2,218.5,402.4,218.1,401.5z M180.8,384.8c-7-9.4-7-12,0-5.6
			c4.4,4.1,7.9,7.6,7.9,8.2C188.7,389.8,183.2,388,180.8,384.8z"/>
		<path class="st3" d="M75.2,382.4c0,10.3-2.9,13.8-10.3,12.6c-5-1.2-7.3,0.3-8.8,4.7c-1.3,4.3-10.5,10.1-14.1,9.6
			c-0.9-0.8-1.1-1.5-1.2-1.9c-0.4-2.7,3.4-5.9,5.8-5.3c0.7,0.2,1.1,0.6,1.4,0.4c0.5-0.3,0.5-1.5-0.3-3.6c-1.2-3.2-0.9-4.4,1.2-2.9
			c2.3,1.2,2.6-0.3,1.2-4.4c-0.6-2.2-0.8-3.7-0.5-4.6c0.1-0.4,0.3-0.7,0.6-0.9h0c0.4-0.3,1.1-0.3,2-0.1c2.1,0.6,3.5-0.6,3.2-2.3
			c-0.3-1.8,2.3-2.6,6.2-2.1c3.8,0.9,7.9-0.3,9.1-2.3c1.8-2.3,1.2-2.9-1.5-1.2c-2.6,1.5-3.2,1.2-1.8-1.2
			C70.5,372.1,75.2,375.7,75.2,382.4z"/>
		<path class="st3" d="M171.7,408.3c-0.6,0-4.7-3.8-9.4-8.8c-9.4-10-17.3-13.2-22.6-9.7c-5,2.9-22.9,2.9-22.9,0
			c0-1.2,2.9-5.3,6.8-9.1c6.2-6.2,6.2-7.3,3.2-22l-3.5-15.3l6.2,4.1c3.5,2.3,11.2,10.3,16.7,17.6C156.1,378.4,174,408.3,171.7,408.3
			z"/>
		<path class="st3" d="M80.1,394.4c-4.1,7.6-5.3,7-3.5-1.8c0.6-4.1,2.3-6.5,3.8-5.6c0.3,0.2,0.6,0.5,0.8,0.9
			C81.7,389.5,81.4,392,80.1,394.4z"/>
		<path class="st3" d="M172.6,398.6c-0.6,0-3.5-4.4-6.8-9.7c-3.8-6.8-4.4-10-2.1-10c0,0,0,0,0,0c0.2,0,0.4,0,0.5,0.1
			c2,0.7,4.6,4.8,6.2,9.9C172.3,394.1,173.2,398.6,172.6,398.6z"/>
		<path class="st4" d="M83.9,302.9c-5-2.7-10.1-4.9-15.5-6.8c-0.3-0.1-0.5-0.3-0.6-0.5c-0.1-0.2-0.1-0.3-0.1-0.5
			c0-0.1,0-0.2,0.1-0.3l6.1-13.9c0.1-0.2,0.3-0.4,0.6-0.5c0.3-0.1,0.5-0.1,0.8,0.1l2,1.1c9.9,5.3,19.4,12.8,29.2,22.7
			c4.6,4.7,9.2,10,13.6,15.7c3.8,5,7,9.6,9.8,14c0.3,0.4,0.1,1-0.3,1.3c-0.9,0.6-2.8,1.9-2.8,1.9c-0.4,0.3-1,0.2-1.3-0.2
			c0,0-0.4-0.5-0.5-0.6c-0.4-0.5-0.8-0.9-1.2-1.4c-0.8-0.9-1.7-1.8-2.6-2.8c-2.1-2.2-4.4-4.5-6.9-6.8c-5-4.7-10.2-9-15.4-12.8
			c-0.4-0.3-0.8-0.6-1.1-0.8l-39.4,47c-2,2.4-5.7,2.8-8.2,0.8c-1.6-1.3-2.3-3.2-2.1-5c0.1-1.1,0.5-2.1,1.3-3l38.7-46.2
			C86.7,304.5,85.3,303.7,83.9,302.9z"/>
	</g>
	<g>
		<polygon class="st3" points="153.2,352.7 153.7,364.3 159.1,363.3 165.9,357.8 160.4,351 		"/>
		<polygon class="st3" points="197.7,362.4 198.6,353.7 194.2,350.7 185.3,355.8 190.3,364.3 		"/>
		<polygon class="st3" points="131.6,330.4 134.5,335.4 138.9,334.3 139.4,329.2 136.9,327.4 		"/>
		<polygon class="st3" points="127.5,308.3 133.8,307.4 135.2,303.8 130,298.4 124.9,303.4 		"/>
		<polygon class="st3" points="143.8,351.6 146.3,351 146.6,348.1 145.1,347.1 142.1,348.8 		"/>
		<polygon class="st3" points="104.2,351.8 105.8,349 104,347.1 101.3,348.3 101.2,350.1 		"/>
	</g>
</g>
<g>
	<path class="st0" d="M478.6,316.7c-2.3-6.7-8.2-18.6-12.4-24.9c-12.4-18.8-30.5-34-50.6-42.6c-16.3-7-31.4-9.8-49.4-9.3
		c-28.5,0.8-54.7,11.8-75.5,31.7c-10.1,9.6-17.3,19.4-23.7,32.3c-14.3,28.8-15.9,62.7-4.1,92.7c2.2,5.7,4.9,11.2,8.1,16.5
		c0.1,0.2,0.3,0.5,0.4,0.7c0.2,0.3,0.4,0.6,0.6,1c3.1,5,6.5,9.7,10.2,14.1c9.9,11.7,22,21.4,35.7,28.3c14.2,7.3,27.7,11,45.2,12.5
		c4.1,0.3,17.3-0.2,22.8-1c28.5-3.9,54.1-18.6,72.1-39.9c2.8-3.3,5.5-6.9,7.9-10.5c0.4-0.6,0.8-1.2,1.2-1.8l0,0
		c0.3-0.4,0.6-0.9,0.8-1.3c0.4-0.7,0.8-1.4,1.2-2c0.2-0.4,0.4-0.7,0.7-1.1c5.3-9.2,9.4-19.2,12-29.8
		C487,360.7,485.9,338.2,478.6,316.7z M470.5,379.6c-1.9,7.9-4.8,15.4-8.4,22.5c0,0.1-0.1,0.2-0.1,0.2c-0.4,0.7-0.7,1.4-1.1,2.1
		c-0.6,1.1-1.3,2.3-1.9,3.4c-0.8,1.3-1.6,2.6-2.4,3.9c-0.3-0.2-0.5-0.5-0.8-0.7c-7.6-7.3-13.5-10.9-17.9-10.3
		c-4.7,0.6-9.4-2.3-15.6-9.7c-4.7-5.9-8.8-12.6-9.1-14.7c-0.6-2.3-1.8-6.2-3.2-8.5c-0.9-1.4,0.3-0.8,2.8,1.1c-4.8-4.2-8.4-7-9.2-7
		c-0.9,0-1.2,4.1,0,9.4c0.7,3.7,1,6.8,0.9,7.7c2,0.7,4.6,4.8,6.2,9.9c1.8,5.3,2.6,9.7,2.1,9.7c-0.6,0-3.5-4.4-6.8-9.7
		c-3.8-6.8-4.4-10-2.1-10c0,0,0,0,0,0c-1.4-1.8-7.7-10.2-14.7-19.7c-13.2-17.9-14.1-18.5-24.1-17c-15,2.6-30,15.3-37.9,32.6l-6,13.3
		c0.6,1.4,0.3,3.9-1.1,6.4c-4.1,7.6-5.3,7-3.5-1.8c0.6-4.1,2.3-6.5,3.8-5.6v-8.2c-0.3-12.6-2.9-13.8-10.3-5.6
		c-2.9,3.2-8.2,6.2-11.5,6.8c-2.8,0.4-6,2.8-8.4,6c0.4-0.3,1.1-0.3,2-0.1c2.1,0.6,3.5-0.6,3.2-2.3c-0.3-1.8,2.3-2.6,6.2-2.1
		c3.8,0.9,7.9-0.3,9.1-2.3c1.8-2.3,1.2-2.9-1.5-1.2c-2.6,1.5-3.2,1.2-1.8-1.2c2.9-4.7,7.6-1.2,7.6,5.6c0,10.3-2.9,13.8-10.3,12.6
		c-5-1.2-7.3,0.3-8.8,4.7c-1.3,4.3-10.5,10.1-14.1,9.6c-0.8-1.3-1.5-2.5-2.3-3.8c-0.3-0.5-0.6-1-0.8-1.5c-2-3.7-3.8-7.6-5.4-11.5
		c-10.6-26.9-9.2-57.5,3.7-83.4c5.8-11.6,12.3-20.5,21.3-29.1c18.8-17.9,42.3-27.7,68-28.5c16.2-0.5,29.8,2,44.5,8.3
		c18.1,7.8,34.3,21.4,45.5,38.3c3.7,5.6,9,16.3,11.1,22.4C474.3,339.9,475.3,360.1,470.5,379.6z M356.8,389.8c0-1.2,2.9-5.3,6.8-9.1
		c6.2-6.2,6.2-7.3,3.2-22l-3.5-15.3l6.2,4.1c3.5,2.3,11.2,10.3,16.7,17.6c10,13.2,27.9,43.2,25.6,43.2c-0.6,0-4.7-3.8-9.4-8.8
		c-9.4-10-17.3-13.2-22.6-9.7C374.7,392.8,356.8,392.8,356.8,389.8z"/>
	<path class="st1" d="M470.5,379.6c-1.9,7.9-4.8,15.4-8.4,22.5c-7.2-9.6-14.1-18.7-14.9-19.7c-0.6-0.6-3.8,0.3-7,2.3
		c-5.2,3.5-7.6,2.4-19.8-9c0,0,0,0,0,0c-0.2-0.1-0.3-0.3-0.5-0.4c-2.5-2.3-5-4.5-7.2-6.5c0,0,0,0,0,0c-4.8-4.2-8.4-7-9.2-7
		c-0.9,0-1.2,4.1,0,9.4c0.7,3.7,1,6.8,0.9,7.7c0,0.3-0.1,0.4-0.3,0.2c0,0-0.1-0.2-0.3-0.3c-1.4-1.8-7.7-10.2-14.7-19.7
		c-13.2-17.9-14.1-18.5-24.1-17c-15,2.6-30,15.3-37.9,32.6l-6,13.3l-0.8,1.7v-10.9c-0.3-12.6-2.9-13.8-10.3-5.6
		c-2.9,3.2-8.2,6.2-11.5,6.8c-2.8,0.4-6,2.8-8.4,6h0c-0.2,0.3-0.4,0.6-0.6,0.9c-0.6,0.9-1.1,1.8-1.6,2.8c-1.5,3.7-5.3,9.3-9.2,14.2
		c-2-3.7-3.8-7.6-5.4-11.5c-10.6-26.9-9.2-57.5,3.7-83.4c5.8-11.6,12.3-20.5,21.3-29.1c18.8-17.9,42.3-27.7,68-28.5
		c16.2-0.5,29.8,2,44.5,8.3c18.1,7.8,34.3,21.4,45.5,38.3c3.7,5.6,9,16.3,11.1,22.4C474.3,339.9,475.3,360.1,470.5,379.6z"/>
	<g id="layer101_3_">
		<path class="st2" d="M315.2,382.4c0,10.3-2.9,13.8-10.3,12.6c-5-1.2-7.3,0.3-8.8,4.7c-1.3,4.3-10.5,10.1-14.1,9.6
			c-0.8-1.3-1.5-2.5-2.3-3.8c-0.3-0.5-0.6-1-0.8-1.5c3.9-4.9,7.6-10.5,9.2-14.2c0.5-1,1-1.9,1.6-2.8c0.2-0.3,0.4-0.6,0.6-0.9h0
			c0.4-0.3,1.1-0.3,2-0.1c2.1,0.6,3.5-0.6,3.2-2.3c-0.3-1.8,2.3-2.6,6.2-2.1c3.8,0.9,7.9-0.3,9.1-2.3c1.8-2.3,1.2-2.9-1.5-1.2
			c-2.6,1.5-3.2,1.2-1.8-1.2C310.5,372.1,315.2,375.7,315.2,382.4z"/>
		<path class="st2" d="M320.1,394.4c-4.1,7.6-5.3,7-3.5-1.8c0.6-4.1,2.3-6.5,3.8-5.6v2.6l0.8-1.7C321.7,389.5,321.4,392,320.1,394.4
			z"/>
		<path class="st2" d="M386.1,365.2c10,13.2,27.9,43.2,25.6,43.2c-0.6,0-4.7-3.8-9.4-8.8c-9.4-10-17.3-13.2-22.6-9.7
			c-5,2.9-22.9,2.9-22.9,0c0-1.2,2.9-5.3,6.8-9.1c6.2-6.2,6.2-7.3,3.2-22l-3.5-15.3l6.2,4.1C372.9,349.9,380.6,357.8,386.1,365.2z"
			/>
		<path class="st2" d="M412.6,398.6c-0.6,0-3.5-4.4-6.8-9.7c-3.8-6.8-4.4-10-2.1-10c0,0,0,0,0,0c0.1,0.2,0.2,0.3,0.3,0.3
			c0.2,0.2,0.2,0.1,0.3-0.2c2,0.7,4.6,4.8,6.2,9.9C412.3,394.1,413.2,398.6,412.6,398.6z"/>
		<path class="st2" d="M462.1,402.1c0,0.1-0.1,0.2-0.1,0.2c-0.4,0.7-0.7,1.4-1.1,2.1c-0.6,1.1-1.3,2.3-1.9,3.4
			c-0.8,1.3-1.6,2.6-2.4,3.9c-0.3-0.2-0.5-0.5-0.8-0.7c-7.6-7.3-13.5-10.9-17.9-10.3c-4.7,0.6-9.4-2.3-15.6-9.7
			c-4.7-5.9-8.8-12.6-9.1-14.7c-0.6-2.3-1.8-6.2-3.2-8.5c-0.9-1.4,0.3-0.8,2.8,1.1c0,0,0,0,0,0c2.2,1.9,4.7,4.1,7.2,6.5
			c0.2,0.1,0.3,0.3,0.5,0.4c0,0,0,0,0,0c12.2,11.3,14.6,12.4,19.8,9c3.2-2.1,6.5-2.9,7-2.3C448,383.3,454.9,392.5,462.1,402.1z"/>
	</g>
	<g id="layer102_3_">
		<path class="st3" d="M458.1,401.5c-1-2.5-5-1.7-7-4.7c-2.6-3.8-6.2-5.6-8.8-4.7c-5.6,2.1-14.1-0.6-12-3.5
			c0.6-1.1-3.6-6.7-9.8-12.8c0,0,0,0,0,0c-0.3-0.3-0.7-0.7-1-1c-2.6-2.5-4.9-4.5-6.6-5.9c0,0,0,0,0,0c-2.5-2-3.6-2.5-2.8-1.1
			c1.5,2.4,2.6,6.2,3.2,8.5c0.3,2.1,4.4,8.8,9.1,14.7c6.2,7.3,10.9,10.3,15.6,9.7c4.4-0.6,10.3,2.9,17.9,10.3
			c0.3,0.2,0.5,0.5,0.8,0.7c0.9-1.8,1.9-4.3,1.9-7.3C458.5,403.2,458.5,402.4,458.1,401.5z M420.8,384.8c-7-9.4-7-12,0-5.6
			c4.4,4.1,7.9,7.6,7.9,8.2C428.7,389.8,423.2,388,420.8,384.8z"/>
		<path class="st3" d="M315.2,382.4c0,10.3-2.9,13.8-10.3,12.6c-5-1.2-7.3,0.3-8.8,4.7c-1.3,4.3-10.5,10.1-14.1,9.6
			c-0.9-0.8-1.1-1.5-1.2-1.9c-0.4-2.7,3.4-5.9,5.8-5.3c0.7,0.2,1.1,0.6,1.4,0.4c0.5-0.3,0.5-1.5-0.3-3.6c-1.2-3.2-0.9-4.4,1.2-2.9
			c2.3,1.2,2.6-0.3,1.2-4.4c-0.6-2.2-0.8-3.7-0.5-4.6c0.1-0.4,0.3-0.7,0.6-0.9h0c0.4-0.3,1.1-0.3,2-0.1c2.1,0.6,3.5-0.6,3.2-2.3
			c-0.3-1.8,2.3-2.6,6.2-2.1c3.8,0.9,7.9-0.3,9.1-2.3c1.8-2.3,1.2-2.9-1.5-1.2c-2.6,1.5-3.2,1.2-1.8-1.2
			C310.5,372.1,315.2,375.7,315.2,382.4z"/>
		<path class="st3" d="M411.7,408.3c-0.6,0-4.7-3.8-9.4-8.8c-9.4-10-17.3-13.2-22.6-9.7c-5,2.9-22.9,2.9-22.9,0
			c0-1.2,2.9-5.3,6.8-9.1c6.2-6.2,6.2-7.3,3.2-22l-3.5-15.3l6.2,4.1c3.5,2.3,11.2,10.3,16.7,17.6C396.1,378.4,414,408.3,411.7,408.3
			z"/>
		<path class="st3" d="M320.1,394.4c-4.1,7.6-5.3,7-3.5-1.8c0.6-4.1,2.3-6.5,3.8-5.6c0.3,0.2,0.6,0.5,0.8,0.9
			C321.7,389.5,321.4,392,320.1,394.4z"/>
		<path class="st3" d="M412.6,398.6c-0.6,0-3.5-4.4-6.8-9.7c-3.8-6.8-4.4-10-2.1-10c0,0,0,0,0,0c0.2,0,0.4,0,0.5,0.1
			c2,0.7,4.6,4.8,6.2,9.9C412.3,394.1,413.2,398.6,412.6,398.6z"/>
		<path class="st4" d="M323.9,302.9c-5-2.7-10.1-4.9-15.5-6.8c-0.3-0.1-0.5-0.3-0.6-0.5c-0.1-0.2-0.1-0.3-0.1-0.5
			c0-0.1,0-0.2,0.1-0.3l6.1-13.9c0.1-0.2,0.3-0.4,0.6-0.5c0.3-0.1,0.5-0.1,0.8,0.1l2,1.1c9.9,5.3,19.4,12.8,29.2,22.7
			c4.6,4.7,9.2,10,13.6,15.7c3.8,5,7,9.6,9.8,14c0.3,0.4,0.1,1-0.3,1.3c-0.9,0.6-2.8,1.9-2.8,1.9c-0.4,0.3-1,0.2-1.3-0.2
			c0,0-0.4-0.5-0.5-0.6c-0.4-0.5-0.8-0.9-1.2-1.4c-0.8-0.9-1.7-1.8-2.6-2.8c-2.1-2.2-4.4-4.5-6.9-6.8c-5-4.7-10.2-9-15.4-12.8
			c-0.4-0.3-0.8-0.6-1.1-0.8l-39.4,47c-2,2.4-5.7,2.8-8.2,0.8c-1.6-1.3-2.3-3.2-2.1-5c0.1-1.1,0.5-2.1,1.3-3l38.7-46.2
			C326.7,304.5,325.3,303.7,323.9,302.9z"/>
	</g>
	<g>
		<polygon class="st3" points="393.2,352.7 393.7,364.3 399.1,363.3 405.9,357.8 400.4,351 		"/>
		<polygon class="st3" points="437.7,362.4 438.6,353.7 434.2,350.7 425.3,355.8 430.3,364.3 		"/>
		<polygon class="st3" points="371.6,330.4 374.5,335.4 378.9,334.3 379.4,329.2 376.9,327.4 		"/>
		<polygon class="st3" points="367.5,308.3 373.8,307.4 375.2,303.8 370,298.4 364.9,303.4 		"/>
		<polygon class="st3" points="383.8,351.6 386.3,351 386.6,348.1 385.1,347.1 382.1,348.8 		"/>
		<polygon class="st3" points="344.2,351.8 345.8,349 344,347.1 341.3,348.3 341.2,350.1 		"/>
	</g>
</g>
<g>
	<path class="st0" d="M358.6,106.8c-2.3-6.7-8.2-18.6-12.4-24.9c-12.4-18.8-30.5-34-50.6-42.6c-16.3-7-31.4-9.8-49.4-9.3
		c-28.5,0.8-54.7,11.8-75.5,31.7c-10.1,9.6-17.3,19.4-23.7,32.3c-14.3,28.8-15.9,62.7-4.1,92.7c2.2,5.7,4.9,11.2,8.1,16.5
		c0.1,0.2,0.3,0.5,0.4,0.7c0.2,0.3,0.4,0.6,0.6,1c3.1,5,6.5,9.7,10.2,14.1c9.9,11.7,22,21.4,35.7,28.3c14.2,7.3,27.7,11,45.2,12.5
		c4.1,0.3,17.3-0.2,22.8-1c28.5-3.9,54.1-18.6,72.1-39.9c2.8-3.3,5.5-6.9,7.9-10.5c0.4-0.6,0.8-1.2,1.2-1.8l0,0
		c0.3-0.4,0.6-0.9,0.8-1.3c0.4-0.7,0.8-1.4,1.2-2c0.2-0.4,0.4-0.7,0.7-1.1c5.3-9.2,9.4-19.2,12-29.8
		C367,150.8,365.9,128.3,358.6,106.8z M350.5,169.7c-1.9,7.9-4.8,15.4-8.4,22.5c0,0.1-0.1,0.2-0.1,0.2c-0.4,0.7-0.7,1.4-1.1,2.1
		c-0.6,1.1-1.3,2.3-1.9,3.4c-0.8,1.3-1.6,2.6-2.4,3.9c-0.3-0.2-0.5-0.5-0.8-0.7c-7.6-7.3-13.5-10.9-17.9-10.3
		c-4.7,0.6-9.4-2.3-15.6-9.7c-4.7-5.9-8.8-12.6-9.1-14.7c-0.6-2.3-1.8-6.2-3.2-8.5c-0.9-1.4,0.3-0.8,2.8,1.1c-4.8-4.2-8.4-7-9.2-7
		c-0.9,0-1.2,4.1,0,9.4c0.7,3.7,1,6.8,0.9,7.7c2,0.7,4.6,4.8,6.2,9.9c1.8,5.3,2.6,9.7,2.1,9.7c-0.6,0-3.5-4.4-6.8-9.7
		c-3.8-6.8-4.4-10-2.1-10c0,0,0,0,0,0c-1.4-1.8-7.7-10.2-14.7-19.7c-13.2-17.9-14.1-18.5-24.1-17c-15,2.6-30,15.3-37.9,32.6l-6,13.3
		c0.6,1.4,0.3,3.9-1.1,6.4c-4.1,7.6-5.3,7-3.5-1.8c0.6-4.1,2.3-6.5,3.8-5.6V169c-0.3-12.6-2.9-13.8-10.3-5.6
		c-2.9,3.2-8.2,6.2-11.5,6.8c-2.8,0.4-6,2.8-8.4,6c0.4-0.3,1.1-0.3,2-0.1c2.1,0.6,3.5-0.6,3.2-2.3c-0.3-1.8,2.3-2.6,6.2-2.1
		c3.8,0.9,7.9-0.3,9.1-2.3c1.8-2.3,1.2-2.9-1.5-1.2c-2.6,1.5-3.2,1.2-1.8-1.2c2.9-4.7,7.6-1.2,7.6,5.6c0,10.3-2.9,13.8-10.3,12.6
		c-5-1.2-7.3,0.3-8.8,4.7c-1.3,4.3-10.5,10.1-14.1,9.6c-0.8-1.3-1.5-2.5-2.3-3.8c-0.3-0.5-0.6-1-0.8-1.5c-2-3.7-3.8-7.6-5.4-11.5
		c-10.6-26.9-9.2-57.5,3.7-83.4c5.8-11.6,12.3-20.5,21.3-29.1c18.8-17.9,42.3-27.7,68-28.5c16.2-0.5,29.8,2,44.5,8.3
		c18.1,7.8,34.3,21.4,45.5,38.3c3.7,5.6,9,16.3,11.1,22.4C354.3,130,355.3,150.2,350.5,169.7z M236.8,179.9c0-1.2,2.9-5.3,6.8-9.1
		c6.2-6.2,6.2-7.3,3.2-22l-3.5-15.3l6.2,4.1c3.5,2.3,11.2,10.3,16.7,17.6c10,13.2,27.9,43.2,25.6,43.2c-0.6,0-4.7-3.8-9.4-8.8
		c-9.4-10-17.3-13.2-22.6-9.7C254.7,182.8,236.8,182.8,236.8,179.9z"/>
	<path class="st1" d="M350.5,169.7c-1.9,7.9-4.8,15.4-8.4,22.5c-7.2-9.6-14.1-18.7-14.9-19.7c-0.6-0.6-3.8,0.3-7,2.3
		c-5.2,3.5-7.6,2.4-19.8-9c0,0,0,0,0,0c-0.2-0.1-0.3-0.3-0.5-0.4c-2.5-2.3-5-4.5-7.2-6.5c0,0,0,0,0,0c-4.8-4.2-8.4-7-9.2-7
		c-0.9,0-1.2,4.1,0,9.4c0.7,3.7,1,6.8,0.9,7.7c0,0.3-0.1,0.4-0.3,0.2c0,0-0.1-0.2-0.3-0.3c-1.4-1.8-7.7-10.2-14.7-19.7
		c-13.2-17.9-14.1-18.5-24.1-17c-15,2.6-30,15.3-37.9,32.6l-6,13.3l-0.8,1.7V169c-0.3-12.6-2.9-13.8-10.3-5.6
		c-2.9,3.2-8.2,6.2-11.5,6.8c-2.8,0.4-6,2.8-8.4,6h0c-0.2,0.3-0.4,0.6-0.6,0.9c-0.6,0.9-1.1,1.8-1.6,2.8c-1.5,3.7-5.3,9.3-9.2,14.2
		c-2-3.7-3.8-7.6-5.4-11.5c-10.6-26.9-9.2-57.5,3.7-83.4c5.8-11.6,12.3-20.5,21.3-29.1c18.8-17.9,42.3-27.7,68-28.5
		c16.2-0.5,29.8,2,44.5,8.3c18.1,7.8,34.3,21.4,45.5,38.3c3.7,5.6,9,16.3,11.1,22.4C354.3,130,355.3,150.2,350.5,169.7z"/>
	<g id="layer101_2_">
		<path class="st2" d="M195.2,172.5c0,10.3-2.9,13.8-10.3,12.6c-5-1.2-7.3,0.3-8.8,4.7c-1.3,4.3-10.5,10.1-14.1,9.6
			c-0.8-1.3-1.5-2.5-2.3-3.8c-0.3-0.5-0.6-1-0.8-1.5c3.9-4.9,7.6-10.5,9.2-14.2c0.5-1,1-1.9,1.6-2.8c0.2-0.3,0.4-0.6,0.6-0.9h0
			c0.4-0.3,1.1-0.3,2-0.1c2.1,0.6,3.5-0.6,3.2-2.3c-0.3-1.8,2.3-2.6,6.2-2.1c3.8,0.9,7.9-0.3,9.1-2.3c1.8-2.3,1.2-2.9-1.5-1.2
			c-2.6,1.5-3.2,1.2-1.8-1.2C190.5,162.2,195.2,165.7,195.2,172.5z"/>
		<path class="st2" d="M200.1,184.5c-4.1,7.6-5.3,7-3.5-1.8c0.6-4.1,2.3-6.5,3.8-5.6v2.6l0.8-1.7C201.7,179.5,201.4,182,200.1,184.5
			z"/>
		<path class="st2" d="M266.1,155.2c10,13.2,27.9,43.2,25.6,43.2c-0.6,0-4.7-3.8-9.4-8.8c-9.4-10-17.3-13.2-22.6-9.7
			c-5,2.9-22.9,2.9-22.9,0c0-1.2,2.9-5.3,6.8-9.1c6.2-6.2,6.2-7.3,3.2-22l-3.5-15.3l6.2,4.1C252.9,140,260.6,147.9,266.1,155.2z"/>
		<path class="st2" d="M292.6,188.6c-0.6,0-3.5-4.4-6.8-9.7c-3.8-6.8-4.4-10-2.1-10c0,0,0,0,0,0c0.1,0.2,0.2,0.3,0.3,0.3
			c0.2,0.2,0.2,0.1,0.3-0.2c2,0.7,4.6,4.8,6.2,9.9C292.3,184.2,293.2,188.6,292.6,188.6z"/>
		<path class="st2" d="M342.1,192.2c0,0.1-0.1,0.2-0.1,0.2c-0.4,0.7-0.7,1.4-1.1,2.1c-0.6,1.1-1.3,2.3-1.9,3.4
			c-0.8,1.3-1.6,2.6-2.4,3.9c-0.3-0.2-0.5-0.5-0.8-0.7c-7.6-7.3-13.5-10.9-17.9-10.3c-4.7,0.6-9.4-2.3-15.6-9.7
			c-4.7-5.9-8.8-12.6-9.1-14.7c-0.6-2.3-1.8-6.2-3.2-8.5c-0.9-1.4,0.3-0.8,2.8,1.1c0,0,0,0,0,0c2.2,1.9,4.7,4.1,7.2,6.5
			c0.2,0.1,0.3,0.3,0.5,0.4c0,0,0,0,0,0c12.2,11.3,14.6,12.4,19.8,9c3.2-2.1,6.5-2.9,7-2.3C328,173.4,334.9,182.5,342.1,192.2z"/>
	</g>
	<g id="layer102_2_">
		<path class="st3" d="M338.1,191.6c-1-2.5-5-1.7-7-4.7c-2.6-3.8-6.2-5.6-8.8-4.7c-5.6,2.1-14.1-0.6-12-3.5
			c0.6-1.1-3.6-6.7-9.8-12.8c0,0,0,0,0,0c-0.3-0.3-0.7-0.7-1-1c-2.6-2.5-4.9-4.5-6.6-5.9c0,0,0,0,0,0c-2.5-2-3.6-2.5-2.8-1.1
			c1.5,2.4,2.6,6.2,3.2,8.5c0.3,2.1,4.4,8.8,9.1,14.7c6.2,7.3,10.9,10.3,15.6,9.7c4.4-0.6,10.3,2.9,17.9,10.3
			c0.3,0.2,0.5,0.5,0.8,0.7c0.9-1.8,1.9-4.3,1.9-7.3C338.5,193.3,338.5,192.5,338.1,191.6z M300.8,174.8c-7-9.4-7-12,0-5.6
			c4.4,4.1,7.9,7.6,7.9,8.2C308.7,179.8,303.2,178.1,300.8,174.8z"/>
		<path class="st3" d="M195.2,172.5c0,10.3-2.9,13.8-10.3,12.6c-5-1.2-7.3,0.3-8.8,4.7c-1.3,4.3-10.5,10.1-14.1,9.6
			c-0.9-0.8-1.1-1.5-1.2-1.9c-0.4-2.7,3.4-5.9,5.8-5.3c0.7,0.2,1.1,0.6,1.4,0.4c0.5-0.3,0.5-1.5-0.3-3.6c-1.2-3.2-0.9-4.4,1.2-2.9
			c2.3,1.2,2.6-0.3,1.2-4.4c-0.6-2.2-0.8-3.7-0.5-4.6c0.1-0.4,0.3-0.7,0.6-0.9h0c0.4-0.3,1.1-0.3,2-0.1c2.1,0.6,3.5-0.6,3.2-2.3
			c-0.3-1.8,2.3-2.6,6.2-2.1c3.8,0.9,7.9-0.3,9.1-2.3c1.8-2.3,1.2-2.9-1.5-1.2c-2.6,1.5-3.2,1.2-1.8-1.2
			C190.5,162.2,195.2,165.7,195.2,172.5z"/>
		<path class="st3" d="M291.7,198.4c-0.6,0-4.7-3.8-9.4-8.8c-9.4-10-17.3-13.2-22.6-9.7c-5,2.9-22.9,2.9-22.9,0
			c0-1.2,2.9-5.3,6.8-9.1c6.2-6.2,6.2-7.3,3.2-22l-3.5-15.3l6.2,4.1c3.5,2.3,11.2,10.3,16.7,17.6C276.1,168.5,294,198.4,291.7,198.4
			z"/>
		<path class="st3" d="M200.1,184.5c-4.1,7.6-5.3,7-3.5-1.8c0.6-4.1,2.3-6.5,3.8-5.6c0.3,0.2,0.6,0.5,0.8,0.9
			C201.7,179.5,201.4,182,200.1,184.5z"/>
		<path class="st3" d="M292.6,188.6c-0.6,0-3.5-4.4-6.8-9.7c-3.8-6.8-4.4-10-2.1-10c0,0,0,0,0,0c0.2,0,0.4,0,0.5,0.1
			c2,0.7,4.6,4.8,6.2,9.9C292.3,184.2,293.2,188.6,292.6,188.6z"/>
		<path class="st4" d="M203.9,93c-5-2.7-10.1-4.9-15.5-6.8c-0.3-0.1-0.5-0.3-0.6-0.5c-0.1-0.2-0.1-0.3-0.1-0.5c0-0.1,0-0.2,0.1-0.3
			L194,71c0.1-0.2,0.3-0.4,0.6-0.5c0.3-0.1,0.5-0.1,0.8,0.1l2,1.1c9.9,5.3,19.4,12.8,29.2,22.7c4.6,4.7,9.2,10,13.6,15.7
			c3.8,5,7,9.6,9.8,14c0.3,0.4,0.1,1-0.3,1.3c-0.9,0.6-2.8,1.9-2.8,1.9c-0.4,0.3-1,0.2-1.3-0.2c0,0-0.4-0.5-0.5-0.6
			c-0.4-0.5-0.8-0.9-1.2-1.4c-0.8-0.9-1.7-1.8-2.6-2.8c-2.1-2.2-4.4-4.5-6.9-6.8c-5-4.7-10.2-9-15.4-12.8c-0.4-0.3-0.8-0.6-1.1-0.8
			l-39.4,47c-2,2.4-5.7,2.8-8.2,0.8c-1.6-1.3-2.3-3.2-2.1-5c0.1-1.1,0.5-2.1,1.3-3l38.7-46.2C206.7,94.5,205.3,93.7,203.9,93z"/>
	</g>
	<g>
		<polygon class="st3" points="273.2,142.7 273.7,154.4 279.1,153.3 285.9,147.9 280.4,141.1 		"/>
		<polygon class="st3" points="317.7,152.5 318.6,143.8 314.2,140.8 305.3,145.9 310.3,154.4 		"/>
		<polygon class="st3" points="251.6,120.5 254.5,125.5 258.9,124.4 259.4,119.3 256.9,117.5 		"/>
		<polygon class="st3" points="247.5,98.4 253.8,97.5 255.2,93.9 250,88.4 244.9,93.5 		"/>
		<polygon class="st3" points="263.8,141.7 266.3,141.1 266.6,138.2 265.1,137.2 262.1,138.9 		"/>
		<polygon class="st3" points="224.2,141.9 225.8,139 224,137.2 221.3,138.4 221.2,140.1 		"/>
	</g>
</g>
</svg>
