<?xml version="1.0" encoding="utf-8"?>
<!-- Generator: Adobe Illustrator 24.0.1, SVG Export Plug-In . SVG Version: 6.00 Build 0)  -->
<svg version="1.1" id="Layer_1" xmlns="http://www.w3.org/2000/svg" xmlns:xlink="http://www.w3.org/1999/xlink" x="0px" y="0px"
	 width="2000px" height="2000px" viewBox="0 0 2000 2000" style="enable-background:new 0 0 2000 2000;" xml:space="preserve">
<style type="text/css">
	.st0{fill:#111110;}
	.st1{fill:#949EAA;}
	.st2{fill:#111010;}
	.st3{fill:#E6E9EF;}
	.st4{fill:#282624;}
</style>
<path class="st0" d="M1944,667.7c-20.1-58.3-71.6-162.1-107.6-216.1c-108-163.4-264.8-295.4-439.6-370.5
	C1255.4,20.3,1123.8-4.2,967,0.6C718.9,7.9,491.4,103,310.1,275.8C222.7,359,159.7,444.8,104,557.1c-124.7,250.4-138,545.4-36,805.7
	c19.5,49.8,43,97.8,70.1,143.6c1.2,2,2.4,4.1,3.7,6.1c1.7,2.8,3.3,5.5,5,8.3c26.5,43.1,56.3,84.2,89,122.9
	c85.7,101.4,191.1,185.9,310,246.5c123.8,63.5,241.3,96.1,393.4,108.9c35.6,3,150.4-1.7,198.4-8.6c248.2-34.1,470.2-161.6,626.8-347
	c24.6-29.1,47.5-59.6,68.7-91.4c3.4-5.1,6.8-10.3,10.1-15.4l0,0c2.4-3.8,4.8-7.5,7.2-11.3c3.6-5.9,7.2-11.8,10.8-17.7
	c1.9-3.2,3.8-6.4,5.7-9.7c46.3-80.1,81.9-167.3,104.6-259.5C2017.3,1050.2,2007.8,854.7,1944,667.7z M1874.3,1214.6
	c-16.9,68.6-41.7,134.1-73.4,195.5c-0.3,0.7-0.7,1.3-1,2c-3.1,6-6.3,12-9.5,17.9c-5.5,10-11.1,19.9-16.9,29.6
	c-6.8,11.3-13.8,22.5-21.1,33.5c-2.2-2-4.4-4.2-6.7-6.3c-66.4-63.9-117.5-94.5-155.8-89.4c-40.9,5.1-81.7-20.4-135.4-84.3
	c-40.9-51.1-76.6-109.8-79.2-127.7c-5.1-20.4-15.3-53.6-28.1-74.1c-7.6-12.1,2.8-7.2,24.1,10c-41.5-36.1-73.3-61-80.3-61
	c-7.7,0-10.2,35.8,0,81.7c5.7,32.2,8.5,58.7,7.6,67.2c17.4,6.1,39.8,41.8,53.7,85.9c15.3,46,23,84.3,17.9,84.3
	c-5.1,0-30.6-38.3-58.7-84.3c-33.2-58.8-38.3-86.8-17.9-86.8c0.1,0,0.2,0,0.3,0c-12.4-15.3-66.9-88.8-128-171
	C1051,881.5,1043.3,876.4,956.5,889.2C826.2,912.2,696,1022,627,1172.7L575,1288.1c5.3,12.3,2.6,34-9.2,55.7
	c-35.8,66.4-46,61.3-30.6-15.3c5.1-35.8,20.4-56.2,33.2-48.5v-71.5c-2.5-109.8-25.5-120-89.4-48.5c-25.5,28.1-71.5,53.6-99.6,58.7
	c-24.5,3.8-51.8,24.2-72.6,52.2c3.8-2.3,9.4-2.6,17.2-1.1c17.9,5.1,30.6-5.1,28.1-20.4c-2.6-15.3,20.4-23,53.6-17.9
	c33.2,7.7,69-2.5,79.2-20.4c15.3-20.4,10.2-25.5-12.8-10.2c-23,12.8-28.1,10.2-15.3-10.2c25.5-40.9,66.4-10.2,66.4,48.5
	c0,89.4-25.5,120-89.4,109.8c-43.4-10.2-63.9,2.6-76.6,40.9c-11,37.2-91.5,87.7-122.2,83.5c-6.8-11-13.4-22.1-19.8-33.4
	c-2.5-4.4-4.9-8.8-7.3-13.2c-17.6-32.3-33.1-65.7-46.6-100.1c-91.8-234.2-79.8-499.7,32.4-725.1c50.1-101.1,106.8-178.3,185.5-253.1
	C542.2,192.7,747,107.1,970.3,100.5c141.1-4.2,259.5,17.8,386.8,72.5c157.3,67.5,298.5,186.4,395.7,333.4
	c32.4,48.6,78.7,142,96.8,194.5C1907.1,869.2,1915.5,1045.2,1874.3,1214.6z M884.9,1303.6c0-10.2,25.5-46,58.7-79.2
	c53.6-53.6,53.6-63.8,28.1-191.5l-30.6-132.8l53.6,35.8c30.6,20.4,97,89.4,145.6,153.2c86.8,114.9,242.6,375.4,222.2,375.4
	c-5.1,0-40.9-33.2-81.7-76.6c-81.7-86.8-150.7-114.9-196.6-84.3C1040.7,1329.1,884.9,1329.1,884.9,1303.6z"/>
<path class="st1" d="M1874.3,1214.6c-16.9,68.6-41.7,134.1-73.4,195.5c-62.8-83.7-122.6-163-129.3-171c-5.1-5.1-33.2,2.6-61.3,20.4
	c-45.4,30.3-65.9,20.7-172.2-78c0,0,0,0,0,0c-1.3-1.2-2.7-2.5-4-3.7c-21.9-20.3-43.3-39.6-62.6-56.4c0,0-0.1-0.1-0.1-0.1
	c-41.5-36.1-73.3-61-80.3-61c-7.7,0-10.2,35.8,0,81.7c5.7,32.2,8.5,58.7,7.6,67.2c-0.3,3-1.2,3.7-2.5,1.7c-0.4-0.4-1.2-1.3-2.3-2.6
	c-12.4-15.3-66.9-88.8-128-171C1051,881.5,1043.3,876.4,956.5,889.2C826.2,912.2,696,1022,627,1172.7L575,1288.1l-6.7,14.8v-94.5
	c-2.5-109.8-25.5-120-89.4-48.5c-25.5,28.1-71.5,53.6-99.6,58.7c-24.5,3.8-51.8,24.2-72.6,52.2h0c-1.8,2.4-3.6,4.9-5.3,7.5
	c-5.2,7.8-10,16.1-14,24.6c-13.2,32.1-45.9,80.8-79.6,123.7c-17.6-32.3-33.1-65.7-46.6-100.1c-91.8-234.2-79.8-499.7,32.4-725.1
	c50.1-101.1,106.8-178.3,185.5-253.1C542.2,192.7,747,107.1,970.3,100.5c141.1-4.2,259.5,17.8,386.8,72.5
	c157.3,67.5,298.5,186.4,395.7,333.4c32.4,48.6,78.7,142,96.8,194.5C1907.1,869.2,1915.5,1045.2,1874.3,1214.6z"/>
<g id="layer101">
	<path class="st2" d="M523.1,1239.1c0,89.4-25.5,120-89.4,109.8c-43.4-10.2-63.9,2.6-76.6,40.9c-11,37.2-91.5,87.7-122.2,83.5
		c-6.8-11-13.4-22.1-19.8-33.4c-2.5-4.4-4.9-8.8-7.3-13.2c33.7-42.9,66.4-91.6,79.6-123.7c4-8.6,8.8-16.8,14-24.6
		c1.7-2.5,3.5-5,5.3-7.5h0c3.8-2.3,9.4-2.6,17.2-1.1c17.9,5.1,30.6-5.1,28.1-20.4c-2.6-15.3,20.4-23,53.6-17.9
		c33.2,7.7,69-2.5,79.2-20.4c15.3-20.4,10.2-25.5-12.8-10.2c-23,12.8-28.1,10.2-15.3-10.2C482.2,1149.7,523.1,1180.3,523.1,1239.1z"
		/>
	<path class="st2" d="M565.7,1343.8c-35.8,66.4-46,61.3-30.6-15.3c5.1-35.8,20.4-56.2,33.2-48.5v23l6.7-14.8
		C580.3,1300.4,577.6,1322.1,565.7,1343.8z"/>
	<path class="st2" d="M1140.3,1089.1c86.8,114.9,242.6,375.4,222.2,375.4c-5.1,0-40.9-33.2-81.7-76.6
		c-81.7-86.8-150.7-114.9-196.6-84.3c-43.4,25.5-199.2,25.5-199.2,0c0-10.2,25.5-46,58.7-79.2c53.6-53.6,53.6-63.8,28.1-191.5
		l-30.6-132.8l53.6,35.8C1025.3,956.3,1091.8,1025.2,1140.3,1089.1z"/>
	<path class="st2" d="M1370.2,1379.4c-5.1,0-30.6-38.3-58.7-84.3c-33.2-58.8-38.3-86.8-17.9-86.8c0.1,0,0.2,0,0.3,0
		c1.1,1.3,1.9,2.2,2.3,2.6c1.3,2,2.1,1.2,2.5-1.7c17.4,6.1,39.8,41.8,53.7,85.9C1367.7,1341.1,1375.3,1379.4,1370.2,1379.4z"/>
	<path class="st2" d="M1800.9,1410.1c-0.3,0.7-0.7,1.3-1,2c-3.1,6-6.3,12-9.5,17.9c-5.5,10-11.1,19.9-16.9,29.6
		c-6.8,11.3-13.8,22.5-21.1,33.5c-2.2-2-4.4-4.2-6.7-6.3c-66.4-63.9-117.5-94.5-155.8-89.4c-40.9,5.1-81.7-20.4-135.4-84.3
		c-40.9-51.1-76.6-109.8-79.2-127.7c-5.1-20.4-15.3-53.6-28.1-74.1c-7.6-12.1,2.8-7.2,24.1,10c0,0,0.1,0,0.1,0.1
		c19.3,16.8,40.7,36.1,62.6,56.4c1.3,1.3,2.7,2.5,4,3.7c0,0,0,0,0,0c106.3,98.6,126.8,108.2,172.2,78c28.1-17.9,56.2-25.5,61.3-20.4
		C1678.3,1247.1,1738.1,1326.4,1800.9,1410.1z"/>
</g>
<g id="layer102">
	<path class="st3" d="M1766.1,1405.1c-8.6-21.5-43.1-14.6-61.3-40.9c-23-33.2-53.6-48.5-76.6-40.9c-48.5,17.9-122.6-5.1-104.7-30.7
		c4.8-9.7-31.6-58.3-85.3-111.2c0,0,0,0,0,0c-3-2.9-6-5.9-9.1-8.9c-22.9-21.8-42.8-39.4-57.5-51.3c0,0-0.1-0.1-0.1-0.1
		c-21.3-17.1-31.7-22.1-24.1-10c12.8,20.4,23,53.6,28.1,74.1c2.6,17.9,38.3,76.6,79.2,127.7c53.6,63.8,94.5,89.4,135.4,84.3
		c38.3-5.1,89.4,25.5,155.8,89.4c2.2,2.1,4.5,4.2,6.7,6.3c8.1-15.3,16.3-37,16.7-63.2C1769.2,1419.6,1769.3,1413,1766.1,1405.1z
		 M1441.7,1259.5c-61.3-81.7-61.3-104.7,0-48.5c38.3,35.8,69,66.4,69,71.5C1510.7,1302.9,1462.2,1287.6,1441.7,1259.5z"/>
	<path class="st3" d="M523.1,1239.1c0,89.4-25.5,120-89.4,109.8c-43.4-10.2-63.9,2.6-76.6,40.9c-11,37.2-91.5,87.7-122.2,83.5
		c-7.6-6.8-9.5-13.1-10.1-16.6c-3.8-23.3,29.9-51.2,50.5-46.5c5.9,1.3,9.5,5,12.5,3.1c4.5-2.8,4.2-13.4-2.3-31.2
		c-10.2-28.1-7.7-38.3,10.2-25.5c20.4,10.2,23-2.6,10.2-38.3c-5-18.7-6.9-31.9-4.7-40c1-3.4,2.7-5.9,5.3-7.5h0
		c3.8-2.3,9.4-2.6,17.2-1.1c17.9,5.1,30.6-5.1,28.1-20.4c-2.6-15.3,20.4-23,53.6-17.9c33.2,7.7,69-2.5,79.2-20.4
		c15.3-20.4,10.2-25.5-12.8-10.2c-23,12.8-28.1,10.2-15.3-10.2C482.2,1149.7,523.1,1180.3,523.1,1239.1z"/>
	<path class="st3" d="M1362.5,1464.5c-5.1,0-40.9-33.2-81.7-76.6c-81.7-86.8-150.7-114.9-196.6-84.3c-43.4,25.5-199.2,25.5-199.2,0
		c0-10.2,25.5-46,58.7-79.2c53.6-53.6,53.6-63.8,28.1-191.5l-30.6-132.8l53.6,35.8c30.6,20.4,97,89.4,145.6,153.2
		C1227.1,1204,1382.9,1464.5,1362.5,1464.5z"/>
	<path class="st3" d="M565.7,1343.8c-35.8,66.4-46,61.3-30.6-15.3c5.1-35.8,20.4-56.2,33.2-48.5c2.9,1.7,5.1,4.5,6.7,8.2
		C580.3,1300.4,577.6,1322.1,565.7,1343.8z"/>
	<path class="st3" d="M1370.2,1379.4c-5.1,0-30.6-38.3-58.7-84.3c-33.2-58.8-38.3-86.8-17.9-86.8c0.1,0,0.2,0,0.3,0
		c1.5,0,3.1,0.3,4.7,0.9c17.4,6.1,39.8,41.8,53.7,85.9C1367.7,1341.1,1375.3,1379.4,1370.2,1379.4z"/>
	<path class="st4" d="M599,547.8c-43.4-23.3-87.4-42.6-134.6-59.1c-2.2-0.8-4-2.4-4.9-4.5c-0.6-1.3-0.8-2.8-0.6-4.2
		c0.1-0.8,0.3-1.7,0.7-2.5l53.5-120.9c0.9-2.1,2.8-3.8,5-4.5c2.2-0.7,4.7-0.5,6.8,0.6l17.6,9.5c85.8,46.5,168.7,111,253.7,197.3
		c40.4,40.9,80.3,86.8,118.5,136.3c33.4,43.3,61.2,83.1,84.8,121.6c2.3,3.7,1.2,8.5-2.4,11c-7.9,5.4-24.5,16.6-24.5,16.6
		c-3.6,2.4-8.5,1.7-11.3-1.6c0,0-3.3-4-4.3-5.1c-3.6-4.1-7.2-8.1-10.8-12.2c-7.1-7.9-14.5-15.8-22.6-24.2
		c-18.5-19.3-38.6-39.2-59.8-59.1C820,702.1,775,664.6,729.8,631.6c-3.3-2.4-6.6-4.8-9.9-7.2l-342.5,408.8
		c-17.7,21.1-49.5,24.1-71.1,6.6c-13.7-11.1-20-27.7-18.2-43.7c1-9.2,4.7-18.3,11.1-26l336.4-401.4
		C623.3,561.3,611.1,554.3,599,547.8z"/>
</g>
<g>
	<polygon class="st3" points="1201.6,980.4 1206.3,1081.3 1252.9,1072.6 1312.2,1025 1264.7,965.8 	"/>
	<polygon class="st3" points="1589,1065.3 1596.7,989.8 1558.6,963.5 1481,1007.8 1524.2,1081.4 	"/>
	<polygon class="st3" points="1013.9,787 1039.4,830.2 1077.5,820.8 1082,776.3 1059.6,760.9 	"/>
	<polygon class="st3" points="978.5,594.8 1033.3,586.9 1045.1,555.3 1000.1,508.2 955.7,551.8 	"/>
	<polygon class="st3" points="1119.7,971.3 1141.4,965.9 1144,940.6 1131.2,931.8 1105.2,946.6 	"/>
	<polygon class="st3" points="775.3,973.1 789.6,948.2 774.1,932 750.8,942.3 749.5,957.8 	"/>
</g>
</svg>
